<?xml version="1.0" encoding="UTF-8" standalone="no"?>
<!DOCTYPE svg PUBLIC "-//W3C//DTD SVG 1.1//EN"
 "http://www.w3.org/Graphics/SVG/1.1/DTD/svg11.dtd">
<!-- Generated by graphviz version 2.43.0 (0)
 -->
<!-- Title: G Pages: 1 -->
<svg width="1346pt" height="621pt"
 viewBox="0.00 0.00 1346.00 621.00" xmlns="http://www.w3.org/2000/svg" xmlns:xlink="http://www.w3.org/1999/xlink">
<g id="graph0" class="graph" transform="scale(1 1) rotate(0) translate(4 617)">
<title>G</title>
<polygon fill="white" stroke="transparent" points="-4,4 -4,-617 1342,-617 1342,4 -4,4"/>
<g id="clust1" class="cluster">
<title>cluster_module.network</title>
<polygon fill="none" stroke="black" points="8,-8 8,-407 889,-407 889,-8 8,-8"/>
<text text-anchor="middle" x="448.5" y="-391.8" font-family="sans-serif" font-size="14.00">module.network</text>
</g>
<!-- data.aws_ami.ubuntu_2204 -->
<g id="node1" class="node">
<title>data.aws_ami.ubuntu_2204</title>
<polygon fill="none" stroke="black" points="830,-451 621,-451 621,-415 830,-415 830,-451"/>
<text text-anchor="middle" x="725.5" y="-429.3" font-family="sans-serif" font-size="14.00">data.aws_ami.ubuntu_2204</text>
</g>
<!-- aws_autoscaling_group.asg -->
<g id="node2" class="node">
<title>aws_autoscaling_group.asg</title>
<polygon fill="none" stroke="black" points="1338,-478 1132,-478 1132,-442 1338,-442 1338,-478"/>
<text text-anchor="middle" x="1235" y="-456.3" font-family="sans-serif" font-size="14.00">aws_autoscaling_group.asg</text>
</g>
<!-- aws_launch_template.lt -->
<g id="node3" class="node">
<title>aws_launch_template.lt</title>
<polygon fill="none" stroke="black" points="1096,-478 917,-478 917,-442 1096,-442 1096,-478"/>
<text text-anchor="middle" x="1006.5" y="-456.3" font-family="sans-serif" font-size="14.00">aws_launch_template.lt</text>
</g>
<!-- aws_autoscaling_group.asg&#45;&gt;aws_launch_template.lt -->
<g id="edge1" class="edge">
<title>aws_autoscaling_group.asg&#45;&gt;aws_launch_template.lt</title>
<path fill="none" stroke="black" d="M1131.68,-460C1123.27,-460 1114.77,-460 1106.37,-460"/>
<polygon fill="black" stroke="black" points="1106.2,-456.5 1096.2,-460 1106.2,-463.5 1106.2,-456.5"/>
</g>
<!-- aws_lb_target_group.tg -->
<g id="node6" class="node">
<title>aws_lb_target_group.tg</title>
<polygon fill="none" stroke="black" points="814,-613 637,-613 637,-577 814,-577 814,-613"/>
<text text-anchor="middle" x="725.5" y="-591.3" font-family="sans-serif" font-size="14.00">aws_lb_target_group.tg</text>
</g>
<!-- aws_autoscaling_group.asg&#45;&gt;aws_lb_target_group.tg -->
<g id="edge2" class="edge">
<title>aws_autoscaling_group.asg&#45;&gt;aws_lb_target_group.tg</title>
<path fill="none" stroke="black" d="M1218.33,-478.05C1194.75,-503.77 1147.41,-550.04 1096,-570 1008.52,-603.96 900.69,-607.32 824.15,-603.94"/>
<polygon fill="black" stroke="black" points="824.19,-600.44 814.03,-603.44 823.85,-607.43 824.19,-600.44"/>
</g>
<!-- module.network.aws_subnet.public -->
<g id="node20" class="node">
<title>module.network.aws_subnet.public</title>
<polygon fill="none" stroke="black" points="502,-268 357,-268 357,-232 502,-232 502,-268"/>
<text text-anchor="middle" x="429.5" y="-246.3" font-family="sans-serif" font-size="14.00">aws_subnet.public</text>
</g>
<!-- aws_autoscaling_group.asg&#45;&gt;module.network.aws_subnet.public -->
<g id="edge3" class="edge">
<title>aws_autoscaling_group.asg&#45;&gt;module.network.aws_subnet.public</title>
<path fill="none" stroke="black" d="M1225.03,-441.9C1191.64,-376.85 1067.24,-154.61 889,-75 759.55,-17.18 681.47,12.61 570,-75 516.77,-116.83 581.47,-174.74 534,-223 527.66,-229.44 519.99,-234.42 511.72,-238.24"/>
<polygon fill="black" stroke="black" points="510.14,-235.1 502.18,-242.08 512.76,-241.59 510.14,-235.1"/>
</g>
<!-- aws_launch_template.lt&#45;&gt;data.aws_ami.ubuntu_2204 -->
<g id="edge4" class="edge">
<title>aws_launch_template.lt&#45;&gt;data.aws_ami.ubuntu_2204</title>
<path fill="none" stroke="black" d="M916.84,-451.42C892.47,-449.06 865.7,-446.47 840.14,-444"/>
<polygon fill="black" stroke="black" points="840.32,-440.5 830.03,-443.02 839.64,-447.47 840.32,-440.5"/>
</g>
<!-- aws_security_group.instance_sg -->
<g id="node8" class="node">
<title>aws_security_group.instance_sg</title>
<polygon fill="none" stroke="black" points="845,-505 606,-505 606,-469 845,-469 845,-505"/>
<text text-anchor="middle" x="725.5" y="-483.3" font-family="sans-serif" font-size="14.00">aws_security_group.instance_sg</text>
</g>
<!-- aws_launch_template.lt&#45;&gt;aws_security_group.instance_sg -->
<g id="edge5" class="edge">
<title>aws_launch_template.lt&#45;&gt;aws_security_group.instance_sg</title>
<path fill="none" stroke="black" d="M916.84,-468.58C897.23,-470.48 876.07,-472.53 855.23,-474.54"/>
<polygon fill="black" stroke="black" points="854.65,-471.08 845.04,-475.53 855.33,-478.05 854.65,-471.08"/>
</g>
<!-- aws_lb.alb -->
<g id="node4" class="node">
<title>aws_lb.alb</title>
<polygon fill="none" stroke="black" points="770,-559 681,-559 681,-523 770,-523 770,-559"/>
<text text-anchor="middle" x="725.5" y="-537.3" font-family="sans-serif" font-size="14.00">aws_lb.alb</text>
</g>
<!-- aws_security_group.alb_sg -->
<g id="node7" class="node">
<title>aws_security_group.alb_sg</title>
<polygon fill="none" stroke="black" points="530.5,-505 328.5,-505 328.5,-469 530.5,-469 530.5,-505"/>
<text text-anchor="middle" x="429.5" y="-483.3" font-family="sans-serif" font-size="14.00">aws_security_group.alb_sg</text>
</g>
<!-- aws_lb.alb&#45;&gt;aws_security_group.alb_sg -->
<g id="edge6" class="edge">
<title>aws_lb.alb&#45;&gt;aws_security_group.alb_sg</title>
<path fill="none" stroke="black" d="M680.84,-533.59C649.88,-528.28 607.36,-520.88 570,-514 557.84,-511.76 545.1,-509.37 532.47,-506.96"/>
<polygon fill="black" stroke="black" points="532.86,-503.47 522.38,-505.03 531.54,-510.34 532.86,-503.47"/>
</g>
<!-- aws_lb.alb&#45;&gt;module.network.aws_subnet.public -->
<g id="edge7" class="edge">
<title>aws_lb.alb&#45;&gt;module.network.aws_subnet.public</title>
<path fill="none" stroke="black" d="M680.96,-545.99C646.05,-547.39 598.37,-543.01 570,-514 495.51,-437.83 605.3,-356.17 534,-277 527.75,-270.06 519.96,-264.8 511.47,-260.84"/>
<polygon fill="black" stroke="black" points="512.62,-257.53 502.03,-257.02 509.99,-264.02 512.62,-257.53"/>
</g>
<!-- aws_lb_listener.http -->
<g id="node5" class="node">
<title>aws_lb_listener.http</title>
<polygon fill="none" stroke="black" points="1083,-561 930,-561 930,-525 1083,-525 1083,-561"/>
<text text-anchor="middle" x="1006.5" y="-539.3" font-family="sans-serif" font-size="14.00">aws_lb_listener.http</text>
</g>
<!-- aws_lb_listener.http&#45;&gt;aws_lb.alb -->
<g id="edge8" class="edge">
<title>aws_lb_listener.http&#45;&gt;aws_lb.alb</title>
<path fill="none" stroke="black" d="M930,-542.46C882.74,-542.12 822.96,-541.69 780.45,-541.39"/>
<polygon fill="black" stroke="black" points="780.33,-537.89 770.31,-541.31 780.28,-544.89 780.33,-537.89"/>
</g>
<!-- aws_lb_listener.http&#45;&gt;aws_lb_target_group.tg -->
<g id="edge9" class="edge">
<title>aws_lb_listener.http&#45;&gt;aws_lb_target_group.tg</title>
<path fill="none" stroke="black" d="M929.78,-559.79C916.22,-562.64 902.21,-565.49 889,-568 868.14,-571.97 845.71,-575.91 824.38,-579.5"/>
<polygon fill="black" stroke="black" points="823.63,-576.07 814.34,-581.18 824.78,-582.98 823.63,-576.07"/>
</g>
<!-- module.network.aws_vpc.vpc -->
<g id="node21" class="node">
<title>module.network.aws_vpc.vpc</title>
<polygon fill="none" stroke="black" points="204.5,-295 100.5,-295 100.5,-259 204.5,-259 204.5,-295"/>
<text text-anchor="middle" x="152.5" y="-273.3" font-family="sans-serif" font-size="14.00">aws_vpc.vpc</text>
</g>
<!-- aws_lb_target_group.tg&#45;&gt;module.network.aws_vpc.vpc -->
<g id="edge10" class="edge">
<title>aws_lb_target_group.tg&#45;&gt;module.network.aws_vpc.vpc</title>
<path fill="none" stroke="black" d="M636.82,-595.53C550.82,-592.08 419.23,-575.82 325,-514 243.79,-460.71 188.2,-354.77 165.28,-304.59"/>
<polygon fill="black" stroke="black" points="168.41,-303.02 161.13,-295.33 162.02,-305.89 168.41,-303.02"/>
</g>
<!-- aws_security_group.alb_sg&#45;&gt;module.network.aws_vpc.vpc -->
<g id="edge11" class="edge">
<title>aws_security_group.alb_sg&#45;&gt;module.network.aws_vpc.vpc</title>
<path fill="none" stroke="black" d="M403.25,-468.78C382.19,-453.51 351.48,-431.06 325,-411 275.44,-373.45 218.73,-328.81 184.54,-301.71"/>
<polygon fill="black" stroke="black" points="186.36,-298.68 176.35,-295.21 182.01,-304.17 186.36,-298.68"/>
</g>
<!-- aws_security_group.instance_sg&#45;&gt;aws_security_group.alb_sg -->
<g id="edge12" class="edge">
<title>aws_security_group.instance_sg&#45;&gt;aws_security_group.alb_sg</title>
<path fill="none" stroke="black" d="M605.77,-487C584.4,-487 562.21,-487 541.09,-487"/>
<polygon fill="black" stroke="black" points="540.81,-483.5 530.81,-487 540.81,-490.5 540.81,-483.5"/>
</g>
<!-- module.network.data.aws_ami.ubuntu_2204 -->
<g id="node9" class="node">
<title>module.network.data.aws_ami.ubuntu_2204</title>
<polygon fill="none" stroke="black" points="534,-214 325,-214 325,-178 534,-178 534,-214"/>
<text text-anchor="middle" x="429.5" y="-192.3" font-family="sans-serif" font-size="14.00">data.aws_ami.ubuntu_2204</text>
</g>
<!-- module.network.data.aws_availability_zones.available -->
<g id="node10" class="node">
<title>module.network.data.aws_availability_zones.available</title>
<polygon fill="none" stroke="black" points="289,-160 16,-160 16,-124 289,-124 289,-160"/>
<text text-anchor="middle" x="152.5" y="-138.3" font-family="sans-serif" font-size="14.00">data.aws_availability_zones.available</text>
</g>
<!-- module.network.aws_instance.web -->
<g id="node11" class="node">
<title>module.network.aws_instance.web</title>
<polygon fill="none" stroke="black" points="796.5,-201 654.5,-201 654.5,-165 796.5,-165 796.5,-201"/>
<text text-anchor="middle" x="725.5" y="-179.3" font-family="sans-serif" font-size="14.00">aws_instance.web</text>
</g>
<!-- module.network.aws_instance.web&#45;&gt;module.network.data.aws_ami.ubuntu_2204 -->
<g id="edge13" class="edge">
<title>module.network.aws_instance.web&#45;&gt;module.network.data.aws_ami.ubuntu_2204</title>
<path fill="none" stroke="black" d="M654.45,-186.1C621.62,-187.55 581.65,-189.32 544.62,-190.95"/>
<polygon fill="black" stroke="black" points="544.09,-187.47 534.26,-191.41 544.4,-194.47 544.09,-187.47"/>
</g>
<!-- module.network.aws_security_group.web_sg -->
<g id="node18" class="node">
<title>module.network.aws_security_group.web_sg</title>
<polygon fill="none" stroke="black" points="534,-160 325,-160 325,-124 534,-124 534,-160"/>
<text text-anchor="middle" x="429.5" y="-138.3" font-family="sans-serif" font-size="14.00">aws_security_group.web_sg</text>
</g>
<!-- module.network.aws_instance.web&#45;&gt;module.network.aws_security_group.web_sg -->
<g id="edge14" class="edge">
<title>module.network.aws_instance.web&#45;&gt;module.network.aws_security_group.web_sg</title>
<path fill="none" stroke="black" d="M654.45,-173.23C621.62,-168.65 581.65,-163.08 544.62,-157.91"/>
<polygon fill="black" stroke="black" points="544.65,-154.38 534.26,-156.47 543.68,-161.32 544.65,-154.38"/>
</g>
<!-- module.network.aws_subnet.private -->
<g id="node19" class="node">
<title>module.network.aws_subnet.private</title>
<polygon fill="none" stroke="black" points="505.5,-106 353.5,-106 353.5,-70 505.5,-70 505.5,-106"/>
<text text-anchor="middle" x="429.5" y="-84.3" font-family="sans-serif" font-size="14.00">aws_subnet.private</text>
</g>
<!-- module.network.aws_instance.web&#45;&gt;module.network.aws_subnet.private -->
<g id="edge15" class="edge">
<title>module.network.aws_instance.web&#45;&gt;module.network.aws_subnet.private</title>
<path fill="none" stroke="black" d="M671.42,-164.96C641.54,-154.67 603.59,-141.4 570,-129 553.89,-123.06 550.33,-120.29 534,-115 527.53,-112.91 520.79,-110.86 514,-108.89"/>
<polygon fill="black" stroke="black" points="514.6,-105.42 504.03,-106.06 512.69,-112.15 514.6,-105.42"/>
</g>
<!-- module.network.aws_instance.web&#45;&gt;module.network.aws_subnet.public -->
<g id="edge16" class="edge">
<title>module.network.aws_instance.web&#45;&gt;module.network.aws_subnet.public</title>
<path fill="none" stroke="black" d="M654.45,-198.96C611.66,-208.71 556.76,-221.23 512.02,-231.42"/>
<polygon fill="black" stroke="black" points="511.02,-228.06 502.05,-233.69 512.58,-234.88 511.02,-228.06"/>
</g>
<!-- module.network.aws_internet_gateway.igw -->
<g id="node12" class="node">
<title>module.network.aws_internet_gateway.igw</title>
<polygon fill="none" stroke="black" points="527.5,-376 331.5,-376 331.5,-340 527.5,-340 527.5,-376"/>
<text text-anchor="middle" x="429.5" y="-354.3" font-family="sans-serif" font-size="14.00">aws_internet_gateway.igw</text>
</g>
<!-- module.network.aws_internet_gateway.igw&#45;&gt;module.network.aws_vpc.vpc -->
<g id="edge17" class="edge">
<title>module.network.aws_internet_gateway.igw&#45;&gt;module.network.aws_vpc.vpc</title>
<path fill="none" stroke="black" d="M357.39,-339.95C346.51,-337.04 335.44,-334 325,-331 288.16,-320.4 247.2,-307.55 214.56,-297.04"/>
<polygon fill="black" stroke="black" points="215.3,-293.6 204.7,-293.86 213.14,-300.26 215.3,-293.6"/>
</g>
<!-- module.network.aws_route.public_internet -->
<g id="node13" class="node">
<title>module.network.aws_route.public_internet</title>
<polygon fill="none" stroke="black" points="822.5,-362 628.5,-362 628.5,-326 822.5,-326 822.5,-362"/>
<text text-anchor="middle" x="725.5" y="-340.3" font-family="sans-serif" font-size="14.00">aws_route.public_internet</text>
</g>
<!-- module.network.aws_route.public_internet&#45;&gt;module.network.aws_internet_gateway.igw -->
<g id="edge18" class="edge">
<title>module.network.aws_route.public_internet&#45;&gt;module.network.aws_internet_gateway.igw</title>
<path fill="none" stroke="black" d="M628.23,-348.58C599.4,-349.96 567.59,-351.47 538.07,-352.88"/>
<polygon fill="black" stroke="black" points="537.56,-349.4 527.74,-353.37 537.89,-356.39 537.56,-349.4"/>
</g>
<!-- module.network.aws_route_table.public_rt -->
<g id="node15" class="node">
<title>module.network.aws_route_table.public_rt</title>
<polygon fill="none" stroke="black" points="525.5,-322 333.5,-322 333.5,-286 525.5,-286 525.5,-322"/>
<text text-anchor="middle" x="429.5" y="-300.3" font-family="sans-serif" font-size="14.00">aws_route_table.public_rt</text>
</g>
<!-- module.network.aws_route.public_internet&#45;&gt;module.network.aws_route_table.public_rt -->
<g id="edge19" class="edge">
<title>module.network.aws_route.public_internet&#45;&gt;module.network.aws_route_table.public_rt</title>
<path fill="none" stroke="black" d="M628.23,-330.9C598.67,-326.88 565.98,-322.43 535.84,-318.33"/>
<polygon fill="black" stroke="black" points="536.11,-314.84 525.73,-316.96 535.16,-321.77 536.11,-314.84"/>
</g>
<!-- module.network.aws_route_table.private_rt -->
<g id="node14" class="node">
<title>module.network.aws_route_table.private_rt</title>
<polygon fill="none" stroke="black" points="529,-52 330,-52 330,-16 529,-16 529,-52"/>
<text text-anchor="middle" x="429.5" y="-30.3" font-family="sans-serif" font-size="14.00">aws_route_table.private_rt</text>
</g>
<!-- module.network.aws_route_table.private_rt&#45;&gt;module.network.aws_vpc.vpc -->
<g id="edge20" class="edge">
<title>module.network.aws_route_table.private_rt&#45;&gt;module.network.aws_vpc.vpc</title>
<path fill="none" stroke="black" d="M336.52,-52.23C332.4,-54.79 328.53,-57.7 325,-61 288.05,-95.57 317.98,-127.52 289,-169 264.15,-204.58 224.28,-234.35 194.2,-253.57"/>
<polygon fill="black" stroke="black" points="192.23,-250.67 185.61,-258.94 195.94,-256.61 192.23,-250.67"/>
</g>
<!-- module.network.aws_route_table.public_rt&#45;&gt;module.network.aws_vpc.vpc -->
<g id="edge21" class="edge">
<title>module.network.aws_route_table.public_rt&#45;&gt;module.network.aws_vpc.vpc</title>
<path fill="none" stroke="black" d="M333.48,-294.67C294.19,-290.81 249.78,-286.45 214.91,-283.03"/>
<polygon fill="black" stroke="black" points="215.17,-279.54 204.87,-282.04 214.48,-286.5 215.17,-279.54"/>
</g>
<!-- module.network.aws_route_table_association.private_assoc -->
<g id="node16" class="node">
<title>module.network.aws_route_table_association.private_assoc</title>
<polygon fill="none" stroke="black" points="881,-120 570,-120 570,-84 881,-84 881,-120"/>
<text text-anchor="middle" x="725.5" y="-98.3" font-family="sans-serif" font-size="14.00">aws_route_table_association.private_assoc</text>
</g>
<!-- module.network.aws_route_table_association.private_assoc&#45;&gt;module.network.aws_route_table.private_rt -->
<g id="edge22" class="edge">
<title>module.network.aws_route_table_association.private_assoc&#45;&gt;module.network.aws_route_table.private_rt</title>
<path fill="none" stroke="black" d="M646.49,-83.96C607.04,-74.83 559.02,-63.73 518.29,-54.3"/>
<polygon fill="black" stroke="black" points="518.9,-50.85 508.37,-52.01 517.32,-57.67 518.9,-50.85"/>
</g>
<!-- module.network.aws_route_table_association.private_assoc&#45;&gt;module.network.aws_subnet.private -->
<g id="edge23" class="edge">
<title>module.network.aws_route_table_association.private_assoc&#45;&gt;module.network.aws_subnet.private</title>
<path fill="none" stroke="black" d="M569.75,-94.63C551.31,-93.75 533.03,-92.88 516.07,-92.07"/>
<polygon fill="black" stroke="black" points="515.86,-88.56 505.7,-91.58 515.52,-95.55 515.86,-88.56"/>
</g>
<!-- module.network.aws_route_table_association.public_assoc -->
<g id="node17" class="node">
<title>module.network.aws_route_table_association.public_assoc</title>
<polygon fill="none" stroke="black" points="877.5,-281 573.5,-281 573.5,-245 877.5,-245 877.5,-281"/>
<text text-anchor="middle" x="725.5" y="-259.3" font-family="sans-serif" font-size="14.00">aws_route_table_association.public_assoc</text>
</g>
<!-- module.network.aws_route_table_association.public_assoc&#45;&gt;module.network.aws_route_table.public_rt -->
<g id="edge24" class="edge">
<title>module.network.aws_route_table_association.public_assoc&#45;&gt;module.network.aws_route_table.public_rt</title>
<path fill="none" stroke="black" d="M595.12,-281.04C575.31,-283.81 555.07,-286.63 535.86,-289.31"/>
<polygon fill="black" stroke="black" points="535.34,-285.85 525.92,-290.69 536.3,-292.78 535.34,-285.85"/>
</g>
<!-- module.network.aws_route_table_association.public_assoc&#45;&gt;module.network.aws_subnet.public -->
<g id="edge25" class="edge">
<title>module.network.aws_route_table_association.public_assoc&#45;&gt;module.network.aws_subnet.public</title>
<path fill="none" stroke="black" d="M573.19,-256.31C552.2,-255.38 531.33,-254.46 512.29,-253.62"/>
<polygon fill="black" stroke="black" points="512.35,-250.12 502.21,-253.17 512.04,-257.11 512.35,-250.12"/>
</g>
<!-- module.network.aws_security_group.web_sg&#45;&gt;module.network.aws_vpc.vpc -->
<g id="edge26" class="edge">
<title>module.network.aws_security_group.web_sg&#45;&gt;module.network.aws_vpc.vpc</title>
<path fill="none" stroke="black" d="M349.1,-160.02C340.84,-162.69 332.67,-165.68 325,-169 272.98,-191.52 218.51,-228.47 185.28,-252.77"/>
<polygon fill="black" stroke="black" points="182.86,-250.2 176.9,-258.96 187.02,-255.83 182.86,-250.2"/>
</g>
<!-- module.network.aws_subnet.private&#45;&gt;module.network.data.aws_availability_zones.available -->
<g id="edge27" class="edge">
<title>module.network.aws_subnet.private&#45;&gt;module.network.data.aws_availability_zones.available</title>
<path fill="none" stroke="black" d="M353.36,-102.76C323.09,-108.7 287.71,-115.65 255.2,-122.03"/>
<polygon fill="black" stroke="black" points="254.35,-118.63 245.21,-123.99 255.7,-125.5 254.35,-118.63"/>
</g>
<!-- module.network.aws_subnet.private&#45;&gt;module.network.aws_vpc.vpc -->
<g id="edge28" class="edge">
<title>module.network.aws_subnet.private&#45;&gt;module.network.aws_vpc.vpc</title>
<path fill="none" stroke="black" d="M353.47,-100.54C343.36,-104.2 333.55,-108.91 325,-115 301.51,-131.74 308.51,-147.76 289,-169 258.94,-201.73 218.46,-232.65 189.58,-252.95"/>
<polygon fill="black" stroke="black" points="187.24,-250.31 181.02,-258.89 191.23,-256.06 187.24,-250.31"/>
</g>
<!-- module.network.aws_subnet.public&#45;&gt;module.network.data.aws_availability_zones.available -->
<g id="edge29" class="edge">
<title>module.network.aws_subnet.public&#45;&gt;module.network.data.aws_availability_zones.available</title>
<path fill="none" stroke="black" d="M356.98,-233.2C346.16,-230.13 335.21,-226.71 325,-223 279.73,-206.57 230.21,-182.47 196.08,-164.84"/>
<polygon fill="black" stroke="black" points="197.36,-161.56 186.87,-160.04 194.12,-167.77 197.36,-161.56"/>
</g>
<!-- module.network.aws_subnet.public&#45;&gt;module.network.aws_vpc.vpc -->
<g id="edge30" class="edge">
<title>module.network.aws_subnet.public&#45;&gt;module.network.aws_vpc.vpc</title>
<path fill="none" stroke="black" d="M356.96,-257.02C312.86,-261.35 256.88,-266.85 214.81,-270.98"/>
<polygon fill="black" stroke="black" points="214.32,-267.51 204.71,-271.97 215,-274.48 214.32,-267.51"/>
</g>
</g>
</svg>
