<?xml version="1.0" encoding="UTF-8" standalone="no"?>
<!DOCTYPE svg PUBLIC "-//W3C//DTD SVG 1.1//EN"
 "http://www.w3.org/Graphics/SVG/1.1/DTD/svg11.dtd">
<!-- Generated by graphviz version 2.43.0 (0)
 -->
<!-- Title: G Pages: 1 -->
<svg width="882pt" height="260pt"
 viewBox="0.00 0.00 882.00 260.00" xmlns="http://www.w3.org/2000/svg" xmlns:xlink="http://www.w3.org/1999/xlink">
<g id="graph0" class="graph" transform="scale(1 1) rotate(0) translate(4 256)">
<title>G</title>
<polygon fill="white" stroke="transparent" points="-4,4 -4,-256 878,-256 878,4 -4,4"/>
<!-- aws_internet_gateway.igw -->
<g id="node1" class="node">
<title>aws_internet_gateway.igw</title>
<polygon fill="none" stroke="black" points="370.5,-144 174.5,-144 174.5,-108 370.5,-108 370.5,-144"/>
<text text-anchor="middle" x="272.5" y="-122.3" font-family="sans-serif" font-size="14.00">aws_internet_gateway.igw</text>
</g>
<!-- aws_vpc.vpc -->
<g id="node9" class="node">
<title>aws_vpc.vpc</title>
<polygon fill="none" stroke="black" points="104,-144 0,-144 0,-108 104,-108 104,-144"/>
<text text-anchor="middle" x="52" y="-122.3" font-family="sans-serif" font-size="14.00">aws_vpc.vpc</text>
</g>
<!-- aws_internet_gateway.igw&#45;&gt;aws_vpc.vpc -->
<g id="edge1" class="edge">
<title>aws_internet_gateway.igw&#45;&gt;aws_vpc.vpc</title>
<path fill="none" stroke="black" d="M174.39,-126C153.91,-126 132.85,-126 114.14,-126"/>
<polygon fill="black" stroke="black" points="114.01,-122.5 104.01,-126 114.01,-129.5 114.01,-122.5"/>
</g>
<!-- aws_route.public_route -->
<g id="node2" class="node">
<title>aws_route.public_route</title>
<polygon fill="none" stroke="black" points="745.5,-137 569.5,-137 569.5,-101 745.5,-101 745.5,-137"/>
<text text-anchor="middle" x="657.5" y="-115.3" font-family="sans-serif" font-size="14.00">aws_route.public_route</text>
</g>
<!-- aws_route.public_route&#45;&gt;aws_internet_gateway.igw -->
<g id="edge2" class="edge">
<title>aws_route.public_route&#45;&gt;aws_internet_gateway.igw</title>
<path fill="none" stroke="black" d="M569.11,-120.6C513.18,-121.62 440.22,-122.95 380.78,-124.04"/>
<polygon fill="black" stroke="black" points="380.54,-120.54 370.61,-124.23 380.67,-127.54 380.54,-120.54"/>
</g>
<!-- aws_route_table.public_route_table -->
<g id="node4" class="node">
<title>aws_route_table.public_route_table</title>
<polygon fill="none" stroke="black" points="401.5,-90 143.5,-90 143.5,-54 401.5,-54 401.5,-90"/>
<text text-anchor="middle" x="272.5" y="-68.3" font-family="sans-serif" font-size="14.00">aws_route_table.public_route_table</text>
</g>
<!-- aws_route.public_route&#45;&gt;aws_route_table.public_route_table -->
<g id="edge3" class="edge">
<title>aws_route.public_route&#45;&gt;aws_route_table.public_route_table</title>
<path fill="none" stroke="black" d="M569.11,-108.28C522.55,-102.56 464.19,-95.4 411.65,-88.95"/>
<polygon fill="black" stroke="black" points="411.92,-85.46 401.56,-87.72 411.06,-92.41 411.92,-85.46"/>
</g>
<!-- aws_route_table.private_route_table -->
<g id="node3" class="node">
<title>aws_route_table.private_route_table</title>
<polygon fill="none" stroke="black" points="405,-252 140,-252 140,-216 405,-216 405,-252"/>
<text text-anchor="middle" x="272.5" y="-230.3" font-family="sans-serif" font-size="14.00">aws_route_table.private_route_table</text>
</g>
<!-- aws_route_table.private_route_table&#45;&gt;aws_vpc.vpc -->
<g id="edge4" class="edge">
<title>aws_route_table.private_route_table&#45;&gt;aws_vpc.vpc</title>
<path fill="none" stroke="black" d="M160.54,-215.89C153.44,-213.31 146.52,-210.36 140,-207 114.07,-193.63 90.25,-170.33 74.12,-152.14"/>
<polygon fill="black" stroke="black" points="76.45,-149.48 67.27,-144.2 71.15,-154.06 76.45,-149.48"/>
</g>
<!-- aws_route_table.public_route_table&#45;&gt;aws_vpc.vpc -->
<g id="edge5" class="edge">
<title>aws_route_table.public_route_table&#45;&gt;aws_vpc.vpc</title>
<path fill="none" stroke="black" d="M177.85,-90.05C165.09,-92.85 152.19,-95.87 140,-99 131.54,-101.18 122.69,-103.67 114,-106.24"/>
<polygon fill="black" stroke="black" points="112.85,-102.93 104.28,-109.17 114.87,-109.63 112.85,-102.93"/>
</g>
<!-- aws_route_table_association.private_route_table_association -->
<g id="node5" class="node">
<title>aws_route_table_association.private_route_table_association</title>
<polygon fill="none" stroke="black" points="874,-204 441,-204 441,-168 874,-168 874,-204"/>
<text text-anchor="middle" x="657.5" y="-182.3" font-family="sans-serif" font-size="14.00">aws_route_table_association.private_route_table_association</text>
</g>
<!-- aws_route_table_association.private_route_table_association&#45;&gt;aws_route_table.private_route_table -->
<g id="edge6" class="edge">
<title>aws_route_table_association.private_route_table_association&#45;&gt;aws_route_table.private_route_table</title>
<path fill="none" stroke="black" d="M512.8,-204.01C480.91,-208.01 447.13,-212.24 415.31,-216.23"/>
<polygon fill="black" stroke="black" points="414.54,-212.8 405.06,-217.51 415.41,-219.74 414.54,-212.8"/>
</g>
<!-- aws_subnet.private_subnet -->
<g id="node7" class="node">
<title>aws_subnet.private_subnet</title>
<polygon fill="none" stroke="black" points="375.5,-198 169.5,-198 169.5,-162 375.5,-162 375.5,-198"/>
<text text-anchor="middle" x="272.5" y="-176.3" font-family="sans-serif" font-size="14.00">aws_subnet.private_subnet</text>
</g>
<!-- aws_route_table_association.private_route_table_association&#45;&gt;aws_subnet.private_subnet -->
<g id="edge7" class="edge">
<title>aws_route_table_association.private_route_table_association&#45;&gt;aws_subnet.private_subnet</title>
<path fill="none" stroke="black" d="M440.93,-182.62C422.02,-182.33 403.43,-182.04 385.91,-181.76"/>
<polygon fill="black" stroke="black" points="385.77,-178.26 375.72,-181.6 385.66,-185.26 385.77,-178.26"/>
</g>
<!-- aws_route_table_association.public_route_table_association -->
<g id="node6" class="node">
<title>aws_route_table_association.public_route_table_association</title>
<polygon fill="none" stroke="black" points="870.5,-56 444.5,-56 444.5,-20 870.5,-20 870.5,-56"/>
<text text-anchor="middle" x="657.5" y="-34.3" font-family="sans-serif" font-size="14.00">aws_route_table_association.public_route_table_association</text>
</g>
<!-- aws_route_table_association.public_route_table_association&#45;&gt;aws_route_table.public_route_table -->
<g id="edge8" class="edge">
<title>aws_route_table_association.public_route_table_association&#45;&gt;aws_route_table.public_route_table</title>
<path fill="none" stroke="black" d="M453.5,-56.02C439.44,-57.27 425.45,-58.51 411.85,-59.72"/>
<polygon fill="black" stroke="black" points="411.19,-56.26 401.54,-60.63 411.81,-63.24 411.19,-56.26"/>
</g>
<!-- aws_subnet.public_subnet -->
<g id="node8" class="node">
<title>aws_subnet.public_subnet</title>
<polygon fill="none" stroke="black" points="372.5,-36 172.5,-36 172.5,0 372.5,0 372.5,-36"/>
<text text-anchor="middle" x="272.5" y="-14.3" font-family="sans-serif" font-size="14.00">aws_subnet.public_subnet</text>
</g>
<!-- aws_route_table_association.public_route_table_association&#45;&gt;aws_subnet.public_subnet -->
<g id="edge9" class="edge">
<title>aws_route_table_association.public_route_table_association&#45;&gt;aws_subnet.public_subnet</title>
<path fill="none" stroke="black" d="M444.28,-26.92C423.11,-25.81 402.29,-24.73 382.86,-23.71"/>
<polygon fill="black" stroke="black" points="383,-20.21 372.83,-23.19 382.64,-27.2 383,-20.21"/>
</g>
<!-- aws_subnet.private_subnet&#45;&gt;aws_vpc.vpc -->
<g id="edge10" class="edge">
<title>aws_subnet.private_subnet&#45;&gt;aws_vpc.vpc</title>
<path fill="none" stroke="black" d="M177.85,-161.95C165.09,-159.15 152.19,-156.13 140,-153 131.54,-150.82 122.69,-148.33 114,-145.76"/>
<polygon fill="black" stroke="black" points="114.87,-142.37 104.28,-142.83 112.85,-149.07 114.87,-142.37"/>
</g>
<!-- aws_subnet.public_subnet&#45;&gt;aws_vpc.vpc -->
<g id="edge11" class="edge">
<title>aws_subnet.public_subnet&#45;&gt;aws_vpc.vpc</title>
<path fill="none" stroke="black" d="M172.17,-32.25C161.01,-35.63 150.05,-39.82 140,-45 114.07,-58.37 90.25,-81.67 74.12,-99.86"/>
<polygon fill="black" stroke="black" points="71.15,-97.94 67.27,-107.8 76.45,-102.52 71.15,-97.94"/>
</g>
</g>
</svg>
