<?xml version="1.0" encoding="UTF-8" standalone="no"?>
<!DOCTYPE svg PUBLIC "-//W3C//DTD SVG 1.1//EN"
 "http://www.w3.org/Graphics/SVG/1.1/DTD/svg11.dtd">
<!-- Generated by graphviz version 2.43.0 (0)
 -->
<!-- Title: G Pages: 1 -->
<svg width="688pt" height="98pt"
 viewBox="0.00 0.00 688.00 98.00" xmlns="http://www.w3.org/2000/svg" xmlns:xlink="http://www.w3.org/1999/xlink">
<g id="graph0" class="graph" transform="scale(1 1) rotate(0) translate(4 94)">
<title>G</title>
<polygon fill="white" stroke="transparent" points="-4,4 -4,-94 684,-94 684,4 -4,4"/>
<!-- data.aws_ami.ubuntu_2204 -->
<g id="node1" class="node">
<title>data.aws_ami.ubuntu_2204</title>
<polygon fill="none" stroke="black" points="502,-90 293,-90 293,-54 502,-54 502,-90"/>
<text text-anchor="middle" x="397.5" y="-68.3" font-family="sans-serif" font-size="14.00">data.aws_ami.ubuntu_2204</text>
</g>
<!-- data.terraform_remote_state.task1 -->
<g id="node2" class="node">
<title>data.terraform_remote_state.task1</title>
<polygon fill="none" stroke="black" points="257,-36 0,-36 0,0 257,0 257,-36"/>
<text text-anchor="middle" x="128.5" y="-14.3" font-family="sans-serif" font-size="14.00">data.terraform_remote_state.task1</text>
</g>
<!-- aws_instance.web -->
<g id="node3" class="node">
<title>aws_instance.web</title>
<polygon fill="none" stroke="black" points="680,-63 538,-63 538,-27 680,-27 680,-63"/>
<text text-anchor="middle" x="609" y="-41.3" font-family="sans-serif" font-size="14.00">aws_instance.web</text>
</g>
<!-- aws_instance.web&#45;&gt;data.aws_ami.ubuntu_2204 -->
<g id="edge1" class="edge">
<title>aws_instance.web&#45;&gt;data.aws_ami.ubuntu_2204</title>
<path fill="none" stroke="black" d="M537.95,-54.03C529.56,-55.11 520.85,-56.23 512.05,-57.37"/>
<polygon fill="black" stroke="black" points="511.56,-53.9 502.09,-58.65 512.45,-60.84 511.56,-53.9"/>
</g>
<!-- aws_security_group.web_sg -->
<g id="node4" class="node">
<title>aws_security_group.web_sg</title>
<polygon fill="none" stroke="black" points="502,-36 293,-36 293,0 502,0 502,-36"/>
<text text-anchor="middle" x="397.5" y="-14.3" font-family="sans-serif" font-size="14.00">aws_security_group.web_sg</text>
</g>
<!-- aws_instance.web&#45;&gt;aws_security_group.web_sg -->
<g id="edge2" class="edge">
<title>aws_instance.web&#45;&gt;aws_security_group.web_sg</title>
<path fill="none" stroke="black" d="M537.95,-35.97C529.56,-34.89 520.85,-33.77 512.05,-32.63"/>
<polygon fill="black" stroke="black" points="512.45,-29.16 502.09,-31.35 511.56,-36.1 512.45,-29.16"/>
</g>
<!-- aws_security_group.web_sg&#45;&gt;data.terraform_remote_state.task1 -->
<g id="edge3" class="edge">
<title>aws_security_group.web_sg&#45;&gt;data.terraform_remote_state.task1</title>
<path fill="none" stroke="black" d="M292.89,-18C284.46,-18 275.86,-18 267.24,-18"/>
<polygon fill="black" stroke="black" points="267.12,-14.5 257.12,-18 267.12,-21.5 267.12,-14.5"/>
</g>
</g>
</svg>
