<?xml version="1.0" encoding="UTF-8" standalone="no"?>
<!DOCTYPE svg PUBLIC "-//W3C//DTD SVG 1.1//EN"
 "http://www.w3.org/Graphics/SVG/1.1/DTD/svg11.dtd">
<!-- Generated by graphviz version 2.43.0 (0)
 -->
<!-- Title: G Pages: 1 -->
<svg width="905pt" height="423pt"
 viewBox="0.00 0.00 905.00 423.00" xmlns="http://www.w3.org/2000/svg" xmlns:xlink="http://www.w3.org/1999/xlink">
<g id="graph0" class="graph" transform="scale(1 1) rotate(0) translate(4 419)">
<title>G</title>
<polygon fill="white" stroke="transparent" points="-4,4 -4,-419 901,-419 901,4 -4,4"/>
<g id="clust1" class="cluster">
<title>cluster_module.stack</title>
<polygon fill="none" stroke="black" points="8,-8 8,-407 889,-407 889,-8 8,-8"/>
<text text-anchor="middle" x="448.5" y="-391.8" font-family="sans-serif" font-size="14.00">module.stack</text>
</g>
<!-- module.stack.data.aws_ami.ubuntu_2204 -->
<g id="node1" class="node">
<title>module.stack.data.aws_ami.ubuntu_2204</title>
<polygon fill="none" stroke="black" points="534,-322 325,-322 325,-286 534,-286 534,-322"/>
<text text-anchor="middle" x="429.5" y="-300.3" font-family="sans-serif" font-size="14.00">data.aws_ami.ubuntu_2204</text>
</g>
<!-- module.stack.data.aws_availability_zones.available -->
<g id="node2" class="node">
<title>module.stack.data.aws_availability_zones.available</title>
<polygon fill="none" stroke="black" points="289,-254 16,-254 16,-218 289,-218 289,-254"/>
<text text-anchor="middle" x="152.5" y="-232.3" font-family="sans-serif" font-size="14.00">data.aws_availability_zones.available</text>
</g>
<!-- module.stack.aws_instance.web -->
<g id="node3" class="node">
<title>module.stack.aws_instance.web</title>
<polygon fill="none" stroke="black" points="796.5,-295 654.5,-295 654.5,-259 796.5,-259 796.5,-295"/>
<text text-anchor="middle" x="725.5" y="-273.3" font-family="sans-serif" font-size="14.00">aws_instance.web</text>
</g>
<!-- module.stack.aws_instance.web&#45;&gt;module.stack.data.aws_ami.ubuntu_2204 -->
<g id="edge1" class="edge">
<title>module.stack.aws_instance.web&#45;&gt;module.stack.data.aws_ami.ubuntu_2204</title>
<path fill="none" stroke="black" d="M654.45,-283.43C621.62,-286.45 581.65,-290.12 544.62,-293.52"/>
<polygon fill="black" stroke="black" points="543.9,-290.07 534.26,-294.47 544.54,-297.04 543.9,-290.07"/>
</g>
<!-- module.stack.aws_security_group.web_sg -->
<g id="node10" class="node">
<title>module.stack.aws_security_group.web_sg</title>
<polygon fill="none" stroke="black" points="534,-376 325,-376 325,-340 534,-340 534,-376"/>
<text text-anchor="middle" x="429.5" y="-354.3" font-family="sans-serif" font-size="14.00">aws_security_group.web_sg</text>
</g>
<!-- module.stack.aws_instance.web&#45;&gt;module.stack.aws_security_group.web_sg -->
<g id="edge2" class="edge">
<title>module.stack.aws_instance.web&#45;&gt;module.stack.aws_security_group.web_sg</title>
<path fill="none" stroke="black" d="M661.96,-295.09C624.83,-305.73 576.79,-319.36 534,-331 526.29,-333.1 518.25,-335.25 510.21,-337.39"/>
<polygon fill="black" stroke="black" points="509.2,-334.03 500.42,-339.97 510.99,-340.8 509.2,-334.03"/>
</g>
<!-- module.stack.aws_subnet.private -->
<g id="node11" class="node">
<title>module.stack.aws_subnet.private</title>
<polygon fill="none" stroke="black" points="505.5,-268 353.5,-268 353.5,-232 505.5,-232 505.5,-268"/>
<text text-anchor="middle" x="429.5" y="-246.3" font-family="sans-serif" font-size="14.00">aws_subnet.private</text>
</g>
<!-- module.stack.aws_instance.web&#45;&gt;module.stack.aws_subnet.private -->
<g id="edge3" class="edge">
<title>module.stack.aws_instance.web&#45;&gt;module.stack.aws_subnet.private</title>
<path fill="none" stroke="black" d="M654.45,-270.57C612.86,-266.75 559.81,-261.88 515.78,-257.83"/>
<polygon fill="black" stroke="black" points="515.95,-254.33 505.67,-256.9 515.31,-261.3 515.95,-254.33"/>
</g>
<!-- module.stack.aws_subnet.public -->
<g id="node12" class="node">
<title>module.stack.aws_subnet.public</title>
<polygon fill="none" stroke="black" points="502,-214 357,-214 357,-178 502,-178 502,-214"/>
<text text-anchor="middle" x="429.5" y="-192.3" font-family="sans-serif" font-size="14.00">aws_subnet.public</text>
</g>
<!-- module.stack.aws_instance.web&#45;&gt;module.stack.aws_subnet.public -->
<g id="edge4" class="edge">
<title>module.stack.aws_instance.web&#45;&gt;module.stack.aws_subnet.public</title>
<path fill="none" stroke="black" d="M661.96,-258.91C624.83,-248.27 576.79,-234.64 534,-223 526.29,-220.9 518.25,-218.75 510.21,-216.61"/>
<polygon fill="black" stroke="black" points="510.99,-213.2 500.42,-214.03 509.2,-219.97 510.99,-213.2"/>
</g>
<!-- module.stack.aws_internet_gateway.igw -->
<g id="node4" class="node">
<title>module.stack.aws_internet_gateway.igw</title>
<polygon fill="none" stroke="black" points="527.5,-52 331.5,-52 331.5,-16 527.5,-16 527.5,-52"/>
<text text-anchor="middle" x="429.5" y="-30.3" font-family="sans-serif" font-size="14.00">aws_internet_gateway.igw</text>
</g>
<!-- module.stack.aws_vpc.vpc -->
<g id="node13" class="node">
<title>module.stack.aws_vpc.vpc</title>
<polygon fill="none" stroke="black" points="204.5,-173 100.5,-173 100.5,-137 204.5,-137 204.5,-173"/>
<text text-anchor="middle" x="152.5" y="-151.3" font-family="sans-serif" font-size="14.00">aws_vpc.vpc</text>
</g>
<!-- module.stack.aws_internet_gateway.igw&#45;&gt;module.stack.aws_vpc.vpc -->
<g id="edge5" class="edge">
<title>module.stack.aws_internet_gateway.igw&#45;&gt;module.stack.aws_vpc.vpc</title>
<path fill="none" stroke="black" d="M350.68,-52.07C341.92,-54.76 333.2,-57.74 325,-61 276.19,-80.4 223.76,-110.67 189.89,-131.6"/>
<polygon fill="black" stroke="black" points="187.91,-128.71 181.28,-136.97 191.61,-134.65 187.91,-128.71"/>
</g>
<!-- module.stack.aws_route.public_internet -->
<g id="node5" class="node">
<title>module.stack.aws_route.public_internet</title>
<polygon fill="none" stroke="black" points="822.5,-52 628.5,-52 628.5,-16 822.5,-16 822.5,-52"/>
<text text-anchor="middle" x="725.5" y="-30.3" font-family="sans-serif" font-size="14.00">aws_route.public_internet</text>
</g>
<!-- module.stack.aws_route.public_internet&#45;&gt;module.stack.aws_internet_gateway.igw -->
<g id="edge6" class="edge">
<title>module.stack.aws_route.public_internet&#45;&gt;module.stack.aws_internet_gateway.igw</title>
<path fill="none" stroke="black" d="M628.23,-34C599.4,-34 567.59,-34 538.07,-34"/>
<polygon fill="black" stroke="black" points="537.74,-30.5 527.74,-34 537.74,-37.5 537.74,-30.5"/>
</g>
<!-- module.stack.aws_route_table.public_rt -->
<g id="node7" class="node">
<title>module.stack.aws_route_table.public_rt</title>
<polygon fill="none" stroke="black" points="525.5,-106 333.5,-106 333.5,-70 525.5,-70 525.5,-106"/>
<text text-anchor="middle" x="429.5" y="-84.3" font-family="sans-serif" font-size="14.00">aws_route_table.public_rt</text>
</g>
<!-- module.stack.aws_route.public_internet&#45;&gt;module.stack.aws_route_table.public_rt -->
<g id="edge7" class="edge">
<title>module.stack.aws_route.public_internet&#45;&gt;module.stack.aws_route_table.public_rt</title>
<path fill="none" stroke="black" d="M628.44,-50.51C609.08,-53.91 588.88,-57.52 570,-61 557.84,-63.24 545.1,-65.63 532.47,-68.04"/>
<polygon fill="black" stroke="black" points="531.54,-64.66 522.38,-69.97 532.86,-71.53 531.54,-64.66"/>
</g>
<!-- module.stack.aws_route_table.private_rt -->
<g id="node6" class="node">
<title>module.stack.aws_route_table.private_rt</title>
<polygon fill="none" stroke="black" points="529,-160 330,-160 330,-124 529,-124 529,-160"/>
<text text-anchor="middle" x="429.5" y="-138.3" font-family="sans-serif" font-size="14.00">aws_route_table.private_rt</text>
</g>
<!-- module.stack.aws_route_table.private_rt&#45;&gt;module.stack.aws_vpc.vpc -->
<g id="edge8" class="edge">
<title>module.stack.aws_route_table.private_rt&#45;&gt;module.stack.aws_vpc.vpc</title>
<path fill="none" stroke="black" d="M330,-146.66C291.59,-148.47 248.75,-150.5 214.9,-152.1"/>
<polygon fill="black" stroke="black" points="214.52,-148.61 204.7,-152.58 214.85,-155.6 214.52,-148.61"/>
</g>
<!-- module.stack.aws_route_table.public_rt&#45;&gt;module.stack.aws_vpc.vpc -->
<g id="edge9" class="edge">
<title>module.stack.aws_route_table.public_rt&#45;&gt;module.stack.aws_vpc.vpc</title>
<path fill="none" stroke="black" d="M354.44,-106.04C310.65,-116.71 255.85,-130.06 214.55,-140.13"/>
<polygon fill="black" stroke="black" points="213.51,-136.78 204.62,-142.54 215.17,-143.58 213.51,-136.78"/>
</g>
<!-- module.stack.aws_route_table_association.private_assoc -->
<g id="node8" class="node">
<title>module.stack.aws_route_table_association.private_assoc</title>
<polygon fill="none" stroke="black" points="881,-200 570,-200 570,-164 881,-164 881,-200"/>
<text text-anchor="middle" x="725.5" y="-178.3" font-family="sans-serif" font-size="14.00">aws_route_table_association.private_assoc</text>
</g>
<!-- module.stack.aws_route_table_association.private_assoc&#45;&gt;module.stack.aws_route_table.private_rt -->
<g id="edge10" class="edge">
<title>module.stack.aws_route_table_association.private_assoc&#45;&gt;module.stack.aws_route_table.private_rt</title>
<path fill="none" stroke="black" d="M592.12,-163.99C574.41,-161.58 556.42,-159.13 539.18,-156.79"/>
<polygon fill="black" stroke="black" points="539.5,-153.3 529.12,-155.42 538.56,-160.23 539.5,-153.3"/>
</g>
<!-- module.stack.aws_route_table_association.private_assoc&#45;&gt;module.stack.aws_subnet.private -->
<g id="edge11" class="edge">
<title>module.stack.aws_route_table_association.private_assoc&#45;&gt;module.stack.aws_subnet.private</title>
<path fill="none" stroke="black" d="M646.49,-200.04C606.09,-209.39 556.7,-220.81 515.36,-230.37"/>
<polygon fill="black" stroke="black" points="514.53,-226.97 505.58,-232.64 516.11,-233.79 514.53,-226.97"/>
</g>
<!-- module.stack.aws_route_table_association.public_assoc -->
<g id="node9" class="node">
<title>module.stack.aws_route_table_association.public_assoc</title>
<polygon fill="none" stroke="black" points="877.5,-106 573.5,-106 573.5,-70 877.5,-70 877.5,-106"/>
<text text-anchor="middle" x="725.5" y="-84.3" font-family="sans-serif" font-size="14.00">aws_route_table_association.public_assoc</text>
</g>
<!-- module.stack.aws_route_table_association.public_assoc&#45;&gt;module.stack.aws_route_table.public_rt -->
<g id="edge12" class="edge">
<title>module.stack.aws_route_table_association.public_assoc&#45;&gt;module.stack.aws_route_table.public_rt</title>
<path fill="none" stroke="black" d="M573.19,-88C560.55,-88 547.95,-88 535.77,-88"/>
<polygon fill="black" stroke="black" points="535.65,-84.5 525.65,-88 535.65,-91.5 535.65,-84.5"/>
</g>
<!-- module.stack.aws_route_table_association.public_assoc&#45;&gt;module.stack.aws_subnet.public -->
<g id="edge13" class="edge">
<title>module.stack.aws_route_table_association.public_assoc&#45;&gt;module.stack.aws_subnet.public</title>
<path fill="none" stroke="black" d="M682.94,-106.05C631.49,-128.35 548.8,-163.95 534,-169 526.91,-171.42 519.49,-173.74 512.01,-175.95"/>
<polygon fill="black" stroke="black" points="510.82,-172.65 502.17,-178.77 512.75,-179.37 510.82,-172.65"/>
</g>
<!-- module.stack.aws_security_group.web_sg&#45;&gt;module.stack.aws_vpc.vpc -->
<g id="edge14" class="edge">
<title>module.stack.aws_security_group.web_sg&#45;&gt;module.stack.aws_vpc.vpc</title>
<path fill="none" stroke="black" d="M336.38,-339.91C332.3,-337.31 328.47,-334.36 325,-331 284.4,-291.66 327.09,-250.78 289,-209 269.56,-187.68 240.58,-174.64 214.41,-166.73"/>
<polygon fill="black" stroke="black" points="215.11,-163.3 204.54,-163.95 213.21,-170.03 215.11,-163.3"/>
</g>
<!-- module.stack.aws_subnet.private&#45;&gt;module.stack.data.aws_availability_zones.available -->
<g id="edge15" class="edge">
<title>module.stack.aws_subnet.private&#45;&gt;module.stack.data.aws_availability_zones.available</title>
<path fill="none" stroke="black" d="M353.36,-246.17C336.44,-245.31 317.92,-244.37 299.2,-243.42"/>
<polygon fill="black" stroke="black" points="299.26,-239.92 289.1,-242.9 298.91,-246.91 299.26,-239.92"/>
</g>
<!-- module.stack.aws_subnet.private&#45;&gt;module.stack.aws_vpc.vpc -->
<g id="edge16" class="edge">
<title>module.stack.aws_subnet.private&#45;&gt;module.stack.aws_vpc.vpc</title>
<path fill="none" stroke="black" d="M354.67,-231.92C344.65,-229.12 334.53,-226.12 325,-223 321.99,-222.02 257.4,-196.35 208.36,-176.84"/>
<polygon fill="black" stroke="black" points="209.37,-173.48 198.79,-173.03 206.78,-179.98 209.37,-173.48"/>
</g>
<!-- module.stack.aws_subnet.public&#45;&gt;module.stack.data.aws_availability_zones.available -->
<g id="edge17" class="edge">
<title>module.stack.aws_subnet.public&#45;&gt;module.stack.data.aws_availability_zones.available</title>
<path fill="none" stroke="black" d="M356.96,-206.41C335.56,-209.52 311.37,-213.04 287.33,-216.53"/>
<polygon fill="black" stroke="black" points="286.8,-213.07 277.4,-217.98 287.8,-220 286.8,-213.07"/>
</g>
<!-- module.stack.aws_subnet.public&#45;&gt;module.stack.aws_vpc.vpc -->
<g id="edge18" class="edge">
<title>module.stack.aws_subnet.public&#45;&gt;module.stack.aws_vpc.vpc</title>
<path fill="none" stroke="black" d="M356.96,-185.33C312.86,-178.76 256.88,-170.41 214.81,-164.14"/>
<polygon fill="black" stroke="black" points="215.11,-160.65 204.71,-162.63 214.08,-167.57 215.11,-160.65"/>
</g>
</g>
</svg>
